<svg version="1.0" xmlns="http://www.w3.org/2000/svg"
 width="200.000000pt" height="120.000000pt" viewBox="0 0 200.000000 120.000000"
 preserveAspectRatio="xMidYMid meet">
<metadata>
Created by potrace 1.10, written by Peter Selinger 2001-2011
</metadata>
<g transform="translate(0.000000,120.000000) scale(0.100000,-0.100000)"
fill="#1affff" stroke="none">
<path d="M809 1101 c-21 -22 -29 -39 -29 -66 0 -51 44 -95 95 -95 51 0 95 44
95 95 0 27 -8 44 -29 66 -41 40 -91 40 -132 0z m109 -17 c27 -18 30 -69 5 -96
-20 -22 -70 -23 -95 -1 -22 20 -23 70 -1 95 20 22 61 23 91 2z"/>
<path d="M1290 1053 c-19 -8 -63 -25 -96 -38 -34 -12 -109 -50 -167 -84 l-105
-62 -83 39 c-46 22 -102 45 -124 53 -22 7 -45 17 -52 22 -27 19 -121 47 -161
47 -92 0 -136 -98 -73 -161 16 -16 39 -29 50 -29 11 0 60 -17 108 -38 48 -22
100 -42 114 -45 l26 -7 -38 -41 c-21 -23 -43 -57 -49 -75 -7 -19 -13 -34 -15
-34 -2 0 -17 14 -33 30 -42 41 -92 41 -133 1 -40 -41 -40 -91 0 -132 33 -32
82 -39 116 -15 20 13 20 11 18 -150 -2 -149 -4 -167 -22 -191 -28 -35 -27 -85
3 -120 29 -33 46 -25 22 11 -22 34 -20 72 4 103 18 23 20 41 20 198 0 186 -6
210 -46 180 -27 -20 -78 -19 -97 3 -25 27 -22 78 5 96 34 24 63 19 103 -15 34
-30 36 -31 55 -14 11 10 22 27 26 39 3 11 24 43 46 69 42 51 44 71 6 86 -13 5
-67 27 -121 50 -54 22 -106 41 -116 41 -27 0 -51 32 -51 68 0 37 30 62 75 62
30 0 125 -30 148 -47 7 -5 30 -15 52 -22 22 -8 77 -31 123 -52 45 -22 88 -39
95 -39 6 0 62 30 122 65 61 36 130 72 155 79 25 8 65 23 90 35 40 18 64 21
215 21 194 0 215 -6 215 -64 0 -60 -17 -66 -189 -66 -148 0 -155 -1 -221 -30
-38 -16 -74 -30 -81 -30 -16 0 -98 -47 -126 -72 -28 -26 -21 -42 36 -80 65
-45 142 -125 173 -179 40 -68 52 -75 76 -44 11 14 23 43 27 65 11 64 64 89
114 54 21 -15 23 -22 18 -75 -6 -68 10 -91 55 -82 42 8 78 -20 78 -61 0 -19
-8 -40 -18 -49 -23 -21 -75 -22 -92 -1 -35 42 -46 38 -106 -42 -56 -74 -57
-76 -38 -95 17 -17 23 -17 52 -7 46 18 86 -5 90 -51 4 -43 -21 -71 -63 -71
-37 0 -65 26 -65 60 0 37 -26 59 -58 49 -15 -4 -47 -12 -72 -18 -78 -17 -173
-41 -218 -56 -58 -20 -243 -20 -301 1 -40 14 -45 13 -62 -2 -11 -9 -19 -21
-19 -27 0 -5 -9 -22 -21 -38 -16 -23 -17 -29 -5 -29 17 0 56 46 56 67 0 14 36
10 72 -8 28 -15 233 -11 280 6 45 15 140 39 218 56 25 6 57 14 73 19 25 8 27
6 27 -22 0 -44 48 -88 95 -88 51 0 95 44 95 95 0 70 -79 117 -141 85 -25 -14
-24 2 1 25 12 11 30 36 42 57 l21 37 29 -24 c63 -53 158 -11 158 70 0 54 -47
98 -99 93 l-39 -3 5 57 c5 53 4 59 -25 87 -58 58 -141 31 -162 -52 -22 -86
-20 -85 -54 -25 -34 60 -117 147 -184 192 l-43 29 53 34 c29 18 59 33 66 33 8
0 44 14 82 30 66 29 73 30 225 30 l157 0 29 29 c21 22 29 39 29 66 0 27 -8 44
-29 66 l-29 29 -184 0 c-145 -1 -190 -4 -218 -17z"/>
<path d="M889 659 c-42 -21 -81 -64 -110 -122 -28 -54 -33 -254 -8 -280 44
-44 195 -62 281 -32 24 8 72 21 108 29 109 26 116 61 35 181 -61 90 -151 172
-260 237 -5 3 -26 -2 -46 -13z m202 -143 c86 -84 152 -187 132 -207 -6 -6 -39
-17 -74 -25 -35 -8 -83 -21 -107 -29 -58 -20 -147 -19 -207 3 l-50 18 2 112
c3 123 16 164 70 213 54 50 61 50 123 7 32 -21 82 -63 111 -92z"/>
<path d="M919 461 c-21 -22 -29 -39 -29 -66 0 -51 44 -95 95 -95 51 0 95 44
95 95 0 51 -44 95 -95 95 -27 0 -44 -8 -66 -29z m109 -17 c27 -18 30 -69 5
-96 -20 -22 -70 -23 -95 -1 -26 23 -24 78 4 97 12 9 32 16 43 16 11 0 31 -7
43 -16z"/>
<path d="M419 351 c-21 -22 -29 -39 -29 -66 0 -51 44 -95 95 -95 51 0 95 44
95 95 0 27 -8 44 -29 66 -22 21 -39 29 -66 29 -27 0 -44 -8 -66 -29z m109 -17
c27 -18 30 -69 5 -96 -20 -22 -70 -23 -95 -1 -26 23 -24 78 4 97 12 9 32 16
43 16 11 0 31 -7 43 -16z"/>
</g>
</svg>
